<svg width="24" height="24" viewBox="0 0 24 24" fill="none" xmlns="http://www.w3.org/2000/svg">
<path d="M5.39998 2.40002C5.5591 2.40002 5.71172 2.46324 5.82424 2.57576C5.93676 2.68828 5.99998 2.84089 5.99998 3.00002C5.99998 7.34882 9.45118 10.8 13.8 10.8H14.7516L13.3752 9.42482C13.3194 9.36904 13.2751 9.30281 13.2449 9.22993C13.2148 9.15704 13.1992 9.07892 13.1992 9.00002C13.1992 8.92113 13.2148 8.84301 13.2449 8.77012C13.2751 8.69724 13.3194 8.63101 13.3752 8.57522C13.4878 8.46256 13.6406 8.39927 13.8 8.39927C13.8789 8.39927 13.957 8.41481 14.0299 8.445C14.1028 8.47519 14.169 8.51944 14.2248 8.57522L16.6248 10.9752C16.6807 11.031 16.725 11.0972 16.7552 11.1701C16.7855 11.243 16.801 11.3211 16.801 11.4C16.801 11.4789 16.7855 11.5571 16.7552 11.63C16.725 11.7029 16.6807 11.7691 16.6248 11.8248L14.2248 14.2248C14.169 14.2806 14.1028 14.3249 14.0299 14.3551C13.957 14.3852 13.8789 14.4008 13.8 14.4008C13.7211 14.4008 13.643 14.3852 13.5701 14.3551C13.4972 14.3249 13.431 14.2806 13.3752 14.2248C13.3194 14.169 13.2751 14.1028 13.2449 14.0299C13.2148 13.957 13.1992 13.8789 13.1992 13.8C13.1992 13.7211 13.2148 13.643 13.2449 13.5701C13.2751 13.4972 13.3194 13.431 13.3752 13.3752L14.7516 12H13.8C12.7738 11.9932 11.7564 12.1902 10.807 12.5798C9.85751 12.9694 8.99492 13.5436 8.26926 14.2693C7.54359 14.995 6.96931 15.8576 6.57975 16.807C6.19019 17.7564 5.99312 18.7738 5.99998 19.8C5.99998 19.9592 5.93676 20.1118 5.82424 20.2243C5.71172 20.3368 5.5591 20.4 5.39998 20.4C5.24085 20.4 5.08823 20.3368 4.97571 20.2243C4.86319 20.1118 4.79998 19.9592 4.79998 19.8C4.78876 17.9833 5.33134 16.2062 6.35543 14.7055C7.37953 13.2049 8.83653 12.0518 10.5324 11.4C8.83653 10.7482 7.37953 9.59518 6.35543 8.09451C5.33134 6.59385 4.78876 4.81679 4.79998 3.00002C4.79998 2.84089 4.86319 2.68828 4.97571 2.57576C5.08823 2.46324 5.24085 2.40002 5.39998 2.40002ZM12.0384 13.4316C10.5659 13.8263 9.2784 14.7249 8.39998 15.9708V16.8C8.39998 17.4365 8.65283 18.047 9.10292 18.4971C9.55301 18.9472 10.1635 19.2 10.8 19.2H18C18.6365 19.2 19.2469 18.9472 19.697 18.4971C20.1471 18.047 20.4 17.4365 20.4 16.8V6.00002C20.4 5.3635 20.1471 4.75306 19.697 4.30297C19.2469 3.85288 18.6365 3.60002 18 3.60002H10.8C10.1635 3.60002 9.55301 3.85288 9.10292 4.30297C8.65283 4.75306 8.39998 5.3635 8.39998 6.00002V6.82922C9.2784 8.07518 10.5659 8.9737 12.0384 9.36842C11.9587 8.989 12.0037 8.59399 12.1668 8.24224C12.3298 7.89049 12.6021 7.60083 12.9432 7.41642C13.2842 7.23201 13.6757 7.16272 14.0593 7.21887C14.4429 7.27502 14.7981 7.45361 15.072 7.72802L17.472 10.128C17.6392 10.2952 17.7719 10.4937 17.8625 10.7121C17.953 10.9306 17.9996 11.1647 17.9996 11.4012C17.9996 11.6377 17.953 11.8719 17.8625 12.0903C17.7719 12.3088 17.6392 12.5073 17.472 12.6744L15.072 15.0744C14.7979 15.3492 14.4425 15.5281 14.0585 15.5844C13.6745 15.6407 13.2826 15.5713 12.9413 15.3868C12.5999 15.2022 12.3273 14.9122 12.1642 14.5601C12.0011 14.208 11.9561 13.8126 12.036 13.4328" fill="white"/>
</svg>
