<svg width="40" height="40" viewBox="0 0 40 40" fill="none" xmlns="http://www.w3.org/2000/svg">
    <g clip-path="url(#clip0_1047_9599)">
        <path
            d="M16.9537 22C19.5037 22 21.6337 23.91 21.9137 26.45C21.9337 26.59 21.8837 26.73 21.7937 26.84C21.7037 26.95 21.5537 27 21.4137 27H12.4937C12.4233 27.0005 12.3537 26.9856 12.2898 26.9562C12.2258 26.9268 12.1691 26.8837 12.1237 26.83C12.0774 26.7771 12.0428 26.715 12.0221 26.6478C12.0014 26.5806 11.9952 26.5098 12.0037 26.44C12.2637 23.91 14.4037 22 16.9537 22ZM16.9997 15C17.7954 15 18.5584 15.3161 19.121 15.8787C19.6836 16.4413 19.9997 17.2044 19.9997 18C19.9997 18.7956 19.6836 19.5587 19.121 20.1213C18.5584 20.6839 17.7954 21 16.9997 21C16.2041 21 15.441 20.6839 14.8784 20.1213C14.3158 19.5587 13.9997 18.7956 13.9997 18C13.9997 17.2044 14.3158 16.4413 14.8784 15.8787C15.441 15.3161 16.2041 15 16.9997 15ZM24.4997 12C24.6323 12 24.7595 12.0527 24.8533 12.1464C24.947 12.2402 24.9997 12.3674 24.9997 12.5V15H27.4997C27.6247 14.9998 27.7452 15.0463 27.8375 15.1305C27.9298 15.2147 27.9873 15.3304 27.9986 15.4548C28.0099 15.5793 27.9742 15.7034 27.8985 15.8028C27.8228 15.9023 27.7127 15.9697 27.5897 15.992L27.4997 16H24.9997V18.5C24.9997 18.617 24.9587 18.7304 24.8838 18.8203C24.8089 18.9102 24.7048 18.9709 24.5897 18.992L24.4997 19C24.3671 19 24.2399 18.9473 24.1462 18.8536C24.0524 18.7598 23.9997 18.6326 23.9997 18.5V16H21.4997C21.3748 16.0002 21.2543 15.9537 21.1619 15.8695C21.0696 15.7853 21.0121 15.6696 21.0008 15.5452C20.9895 15.4207 21.0252 15.2966 21.1009 15.1972C21.1766 15.0977 21.2868 15.0303 21.4097 15.008L21.4997 15H23.9997V12.5C23.9997 12.383 24.0407 12.2696 24.1156 12.1797C24.1905 12.0898 24.2946 12.0291 24.4097 12.008L24.4997 12Z"
            fill="white" />
    </g>

</svg>