<svg width="17" height="14" viewBox="0 0 17 14" fill="none" xmlns="http://www.w3.org/2000/svg">
<path d="M1.66667 13.3333C1.20833 13.3333 0.816111 13.1703 0.49 12.8442C0.163889 12.5181 0.000555556 12.1256 0 11.6667V1.66667C0 1.20833 0.163333 0.816111 0.49 0.49C0.816667 0.163889 1.20889 0.000555556 1.66667 0H15C15.4583 0 15.8508 0.163333 16.1775 0.49C16.5042 0.816666 16.6672 1.20889 16.6667 1.66667V11.6667C16.6667 12.125 16.5036 12.5175 16.1775 12.8442C15.8514 13.1708 15.4589 13.3339 15 13.3333H1.66667ZM3.33333 10.8333H13.3333C13.5694 10.8333 13.7675 10.7533 13.9275 10.5933C14.0875 10.4333 14.1672 10.2356 14.1667 10C14.1661 9.76444 14.0861 9.56667 13.9267 9.40667C13.7672 9.24667 13.5694 9.16667 13.3333 9.16667H3.33333C3.09722 9.16667 2.89944 9.24667 2.74 9.40667C2.58056 9.56667 2.50056 9.76444 2.5 10C2.49944 10.2356 2.57944 10.4336 2.74 10.5942C2.90056 10.7547 3.09833 10.8344 3.33333 10.8333ZM3.33333 7.5H13.3333C13.5694 7.5 13.7675 7.42 13.9275 7.26C14.0875 7.1 14.1672 6.90222 14.1667 6.66667C14.1661 6.43111 14.0861 6.23333 13.9267 6.07333C13.7672 5.91333 13.5694 5.83333 13.3333 5.83333H3.33333C3.09722 5.83333 2.89944 5.91333 2.74 6.07333C2.58056 6.23333 2.50056 6.43111 2.5 6.66667C2.49944 6.90222 2.57944 7.10028 2.74 7.26083C2.90056 7.42139 3.09833 7.50111 3.33333 7.5ZM3.33333 4.16667H10C10.2361 4.16667 10.4342 4.08667 10.5942 3.92667C10.7542 3.76667 10.8339 3.56889 10.8333 3.33333C10.8328 3.09778 10.7528 2.9 10.5933 2.74C10.4339 2.58 10.2361 2.5 10 2.5H3.33333C3.09722 2.5 2.89944 2.58 2.74 2.74C2.58056 2.9 2.50056 3.09778 2.5 3.33333C2.49944 3.56889 2.57944 3.76694 2.74 3.9275C2.90056 4.08806 3.09833 4.16778 3.33333 4.16667Z" fill="#D3AB55"/>
</svg>
