<svg width="14" height="14" viewBox="0 0 14 14" fill="none" xmlns="http://www.w3.org/2000/svg">
<path d="M6.66667 0C2.98417 0 0 2.985 0 6.66667C0 10.3483 2.98417 13.3333 6.66667 13.3333C10.3492 13.3333 13.3333 10.3483 13.3333 6.66667C13.3333 2.985 10.3492 0 6.66667 0ZM9.75583 8.5775C9.91209 8.73376 9.99987 8.94569 9.99987 9.16667C9.99987 9.38765 9.91209 9.59958 9.75583 9.75583C9.59958 9.91209 9.38765 9.99987 9.16667 9.99987C8.94569 9.99987 8.73376 9.91209 8.5775 9.75583L6.66667 7.845L4.75583 9.75583C4.67862 9.83349 4.58682 9.89511 4.48571 9.93716C4.3846 9.97921 4.27617 10.0009 4.16667 10.0009C4.05716 10.0009 3.94873 9.97921 3.84762 9.93716C3.74651 9.89511 3.65471 9.83349 3.5775 9.75583C3.42127 9.59956 3.33351 9.38764 3.33351 9.16667C3.33351 8.9457 3.42127 8.73377 3.5775 8.5775L5.48833 6.66667L3.5775 4.75583C3.42124 4.59958 3.33346 4.38765 3.33346 4.16667C3.33346 3.94569 3.42124 3.73376 3.5775 3.5775C3.73376 3.42124 3.94569 3.33346 4.16667 3.33346C4.38765 3.33346 4.59958 3.42124 4.75583 3.5775L6.66667 5.48833L8.5775 3.5775C8.73376 3.42124 8.94569 3.33346 9.16667 3.33346C9.38765 3.33346 9.59958 3.42124 9.75583 3.5775C9.91209 3.73376 9.99987 3.94569 9.99987 4.16667C9.99987 4.38765 9.91209 4.59958 9.75583 4.75583L7.845 6.66667L9.75583 8.5775Z" fill="#C94B4B"/>
</svg>
