<svg width="24" height="24" viewBox="0 0 24 24" fill="none" xmlns="http://www.w3.org/2000/svg">
<path d="M2.77621 19.783L3.38321 15.621C3.42021 15.349 3.54421 15.096 3.73821 14.901L15.4992 3.124C15.6515 2.96956 15.841 2.85702 16.0494 2.79728C16.2579 2.73755 16.4783 2.73262 16.6892 2.783C17.7689 3.08146 18.7476 3.66686 19.5212 4.477C20.3291 5.25595 20.9105 6.23958 21.2032 7.323C21.2536 7.53393 21.2487 7.75429 21.1889 7.96276C21.1292 8.17123 21.0167 8.36076 20.8622 8.513L9.08821 20.275C8.89293 20.4685 8.63973 20.5928 8.36721 20.629L4.20621 21.236C4.00965 21.2647 3.80911 21.2466 3.62083 21.1833C3.43256 21.12 3.26186 21.0132 3.12258 20.8715C2.98329 20.7299 2.87935 20.5575 2.81917 20.3682C2.75899 20.1789 2.74427 19.978 2.77621 19.782M13.2742 5.364L18.6372 10.727" stroke="#D3AB55" stroke-width="1.5" stroke-linecap="round" stroke-linejoin="round"/>
</svg>
