<svg width="15" height="15" viewBox="0 0 15 15" fill="none" xmlns="http://www.w3.org/2000/svg">
<path d="M9.16667 5C8.93056 5 8.73278 4.92 8.57333 4.76C8.41389 4.6 8.33389 4.40222 8.33333 4.16667V0.833333C8.33333 0.597222 8.41333 0.399445 8.57333 0.24C8.73333 0.0805556 8.93111 0.000555556 9.16667 0H14.1667C14.4028 0 14.6008 0.0800001 14.7608 0.24C14.9208 0.4 15.0006 0.597778 15 0.833333V4.16667C15 4.40278 14.92 4.60083 14.76 4.76083C14.6 4.92083 14.4022 5.00056 14.1667 5H9.16667ZM0.833333 8.33333C0.597222 8.33333 0.399445 8.25333 0.24 8.09333C0.0805556 7.93333 0.000555556 7.73556 0 7.5V0.833333C0 0.597222 0.0800001 0.399445 0.24 0.24C0.4 0.0805556 0.597778 0.000555556 0.833333 0H5.83333C6.06944 0 6.2675 0.0800001 6.4275 0.24C6.5875 0.4 6.66722 0.597778 6.66667 0.833333V7.5C6.66667 7.73611 6.58667 7.93417 6.42667 8.09417C6.26667 8.25417 6.06889 8.33389 5.83333 8.33333H0.833333ZM9.16667 15C8.93056 15 8.73278 14.92 8.57333 14.76C8.41389 14.6 8.33389 14.4022 8.33333 14.1667V7.5C8.33333 7.26389 8.41333 7.06611 8.57333 6.90667C8.73333 6.74722 8.93111 6.66722 9.16667 6.66667H14.1667C14.4028 6.66667 14.6008 6.74667 14.7608 6.90667C14.9208 7.06667 15.0006 7.26444 15 7.5V14.1667C15 14.4028 14.92 14.6008 14.76 14.7608C14.6 14.9208 14.4022 15.0006 14.1667 15H9.16667ZM0.833333 15C0.597222 15 0.399445 14.92 0.24 14.76C0.0805556 14.6 0.000555556 14.4022 0 14.1667V10.8333C0 10.5972 0.0800001 10.3994 0.24 10.24C0.4 10.0806 0.597778 10.0006 0.833333 10H5.83333C6.06944 10 6.2675 10.08 6.4275 10.24C6.5875 10.4 6.66722 10.5978 6.66667 10.8333V14.1667C6.66667 14.4028 6.58667 14.6008 6.42667 14.7608C6.26667 14.9208 6.06889 15.0006 5.83333 15H0.833333Z" fill="#D3AB55"/>
</svg>
