<svg width="16" height="16" viewBox="0 0 16 16" fill="none" xmlns="http://www.w3.org/2000/svg">
<path d="M1.33398 5.99999C1.33398 4.74266 1.33398 4.11466 1.72465 3.72399C2.11532 3.33333 2.74332 3.33333 4.00065 3.33333H12.0007C13.258 3.33333 13.886 3.33333 14.2767 3.72399C14.6673 4.11466 14.6673 4.74266 14.6673 5.99999C14.6673 6.31399 14.6673 6.47133 14.57 6.56933C14.472 6.66666 14.314 6.66666 14.0007 6.66666H2.00065C1.68665 6.66666 1.52932 6.66666 1.43132 6.56933C1.33398 6.47133 1.33398 6.31333 1.33398 5.99999ZM1.33398 12C1.33398 13.2573 1.33398 13.8853 1.72465 14.276C2.11532 14.6667 2.74332 14.6667 4.00065 14.6667H12.0007C13.258 14.6667 13.886 14.6667 14.2767 14.276C14.6673 13.8853 14.6673 13.2573 14.6673 12V8.66666C14.6673 8.35266 14.6673 8.19533 14.57 8.09733C14.472 7.99999 14.314 7.99999 14.0007 7.99999H2.00065C1.68665 7.99999 1.52932 7.99999 1.43132 8.09733C1.33398 8.19533 1.33398 8.35333 1.33398 8.66666V12Z" fill="#999999"/>
<path d="M4.66797 2V4M11.3346 2V4" stroke="#999999" stroke-width="2" stroke-linecap="round"/>
</svg>
