<svg width="40" height="40" viewBox="0 0 40 40" fill="none" xmlns="http://www.w3.org/2000/svg">
    <path
        d="M20 12C24.4184 12 28 15.5812 28 19.999C28 24.4169 24.4184 27.998 20 27.998C18.7058 27.9998 17.4306 27.6862 16.2848 27.0846L12.8528 27.9781C12.7381 28.0079 12.6176 28.0073 12.5033 27.9763C12.3889 27.9452 12.2847 27.8848 12.2008 27.8011C12.117 27.7173 12.0565 27.6132 12.0253 27.4988C11.9942 27.3845 11.9935 27.264 12.0232 27.1494L12.916 23.7186C12.3127 22.5717 11.9983 21.2949 12 19.999C12 15.5812 15.5816 12 20 12ZM21.0016 20.7989H17.4L17.3184 20.8045C17.1748 20.8243 17.0432 20.8954 16.9479 21.0046C16.8527 21.1139 16.8002 21.2539 16.8002 21.3989C16.8002 21.5438 16.8527 21.6838 16.9479 21.7931C17.0432 21.9023 17.1748 21.9734 17.3184 21.9932L17.4 21.9988H21.0016L21.0824 21.9932C21.226 21.9734 21.3576 21.9023 21.4529 21.7931C21.5481 21.6838 21.6006 21.5438 21.6006 21.3989C21.6006 21.2539 21.5481 21.1139 21.4529 21.0046C21.3576 20.8954 21.226 20.8243 21.0824 20.8045L21.0016 20.7989ZM22.6 17.9993H17.4L17.3184 18.0049C17.1748 18.0246 17.0432 18.0957 16.9479 18.205C16.8527 18.3142 16.8002 18.4542 16.8002 18.5992C16.8002 18.7441 16.8527 18.8842 16.9479 18.9934C17.0432 19.1027 17.1748 19.1738 17.3184 19.1935L17.4 19.1991H22.6L22.6816 19.1935C22.8252 19.1738 22.9568 19.1027 23.0521 18.9934C23.1473 18.8842 23.1998 18.7441 23.1998 18.5992C23.1998 18.4542 23.1473 18.3142 23.0521 18.205C22.9568 18.0957 22.8252 18.0246 22.6816 18.0049L22.6 17.9993Z"
        fill="#D3AB55" />
</svg>