<svg width="24" height="24" viewBox="0 0 24 24" fill="none" xmlns="http://www.w3.org/2000/svg">
<path d="M12.0001 2.40002C10.7271 2.40002 9.50616 2.90574 8.60598 3.80591C7.70581 4.70609 7.2001 5.92699 7.2001 7.20002C7.2001 8.47306 7.70581 9.69396 8.60598 10.5941C9.50616 11.4943 10.7271 12 12.0001 12C13.2731 12 14.494 11.4943 15.3942 10.5941C16.2944 9.69396 16.8001 8.47306 16.8001 7.20002C16.8001 5.92699 16.2944 4.70609 15.3942 3.80591C14.494 2.90574 13.2731 2.40002 12.0001 2.40002ZM8.4001 7.20002C8.4001 6.24525 8.77938 5.32957 9.45451 4.65444C10.1296 3.97931 11.0453 3.60002 12.0001 3.60002C12.9549 3.60002 13.8706 3.97931 14.5457 4.65444C15.2208 5.32957 15.6001 6.24525 15.6001 7.20002C15.6001 8.1548 15.2208 9.07048 14.5457 9.74561C13.8706 10.4207 12.9549 10.8 12.0001 10.8C11.0453 10.8 10.1296 10.4207 9.45451 9.74561C8.77938 9.07048 8.4001 8.1548 8.4001 7.20002ZM6.0109 13.2C5.69482 13.1986 5.38157 13.2596 5.08914 13.3796C4.79671 13.4996 4.53086 13.6761 4.30686 13.8991C4.08285 14.1221 3.9051 14.3872 3.78381 14.6791C3.66253 14.971 3.60009 15.2839 3.6001 15.6C3.6001 17.6292 4.5997 19.1592 6.1621 20.1564C7.7005 21.1368 9.7741 21.6 12.0001 21.6C14.2261 21.6 16.2997 21.1368 17.8381 20.1564C19.4005 19.1604 20.4001 17.628 20.4001 15.6C20.4001 14.9635 20.1472 14.3531 19.6972 13.903C19.2471 13.4529 18.6366 13.2 18.0001 13.2H6.0109ZM4.8001 15.6C4.8001 14.9364 5.3377 14.4 6.0109 14.4H18.0001C18.3184 14.4 18.6236 14.5265 18.8486 14.7515C19.0737 14.9765 19.2001 15.2818 19.2001 15.6C19.2001 17.1708 18.4537 18.3408 17.1925 19.1436C15.9085 19.9632 14.0821 20.4 12.0001 20.4C9.9181 20.4 8.0917 19.9632 6.8077 19.1436C5.5477 18.3396 4.8001 17.172 4.8001 15.6Z" fill="#999999"/>
</svg>
