<svg width="24" height="24" viewBox="0 0 24 24" fill="none" xmlns="http://www.w3.org/2000/svg">
<path d="M21.205 7.76494C20.9558 7.2314 20.5515 6.78534 20.045 6.48494L13.575 2.48494C13.1005 2.19092 12.5533 2.03516 11.995 2.03516C11.4368 2.03516 10.8896 2.19092 10.415 2.48494L3.94502 6.48494C3.45455 6.79731 3.06544 7.24548 2.82502 7.77494C2.57527 8.30439 2.4916 8.89704 2.58502 9.47494L4.26502 19.4749C4.37275 20.1723 4.72768 20.8076 5.26502 21.2649C5.79809 21.7114 6.4697 21.9589 7.16502 21.9649H16.785C17.4941 21.9682 18.1814 21.7202 18.725 21.2649C19.2652 20.8099 19.6208 20.1735 19.725 19.4749L21.405 9.47494C21.5069 8.89764 21.4373 8.30316 21.205 7.76494ZM15.345 17.4649H8.65502C8.3898 17.4649 8.13545 17.3596 7.94791 17.172C7.76037 16.9845 7.65502 16.7302 7.65502 16.4649C7.65502 16.1997 7.76037 15.9454 7.94791 15.7578C8.13545 15.5703 8.3898 15.4649 8.65502 15.4649H15.345C15.6102 15.4649 15.8646 15.5703 16.0521 15.7578C16.2397 15.9454 16.345 16.1997 16.345 16.4649C16.345 16.7302 16.2397 16.9845 16.0521 17.172C15.8646 17.3596 15.6102 17.4649 15.345 17.4649Z" fill="#D3AB55"/>
</svg>
