<svg width="24" height="24" viewBox="0 0 24 24" fill="none" xmlns="http://www.w3.org/2000/svg">
<path d="M17.7549 14C18.3513 14.0005 18.9231 14.2378 19.3446 14.6597C19.7661 15.0816 20.0029 15.6536 20.0029 16.25V17.168C20.0029 17.741 19.8239 18.2997 19.4909 18.766C17.9449 20.93 15.4209 22.001 12.0009 22.001C8.57891 22.001 6.05591 20.929 4.51391 18.765C4.18203 18.299 4.00376 17.7411 4.00391 17.169V16.249C4.00417 15.6526 4.2412 15.0807 4.66292 14.659C5.08463 14.2373 5.65652 14.0003 6.25291 14H17.7549ZM11.9999 2.005C12.6565 2.005 13.3067 2.13433 13.9133 2.38561C14.52 2.63688 15.0711 3.00518 15.5354 3.46947C15.9997 3.93376 16.368 4.48496 16.6193 5.09159C16.8706 5.69822 16.9999 6.3484 16.9999 7.005C16.9999 7.66161 16.8706 8.31179 16.6193 8.91842C16.368 9.52505 15.9997 10.0762 15.5354 10.5405C15.0711 11.0048 14.52 11.3731 13.9133 11.6244C13.3067 11.8757 12.6565 12.005 11.9999 12.005C10.6738 12.005 9.40205 11.4782 8.46437 10.5405C7.52669 9.60286 6.99991 8.33109 6.99991 7.005C6.99991 5.67892 7.52669 4.40715 8.46437 3.46947C9.40205 2.53179 10.6738 2.005 11.9999 2.005Z" fill="#D3AB55"/>
</svg>
