<svg width="24" height="24" viewBox="0 0 24 24" fill="none" xmlns="http://www.w3.org/2000/svg">
<path d="M5.616 20C5.15533 20 4.771 19.846 4.463 19.538C4.155 19.23 4.00067 18.8453 4 18.384V5.616C4 5.15533 4.15433 4.771 4.463 4.463C4.77167 4.155 5.156 4.00067 5.616 4H15.577L20 8.423V18.385C20 18.845 19.846 19.2293 19.538 19.538C19.23 19.8467 18.8453 20.0007 18.384 20H5.616ZM5.616 19H18.385C18.5643 19 18.7117 18.9423 18.827 18.827C18.9423 18.7117 19 18.5643 19 18.385V9H15V5H5.616C5.436 5 5.28833 5.05767 5.173 5.173C5.05767 5.28833 5 5.436 5 5.616V18.385C5 18.5643 5.05767 18.7117 5.173 18.827C5.28833 18.9423 5.436 19 5.616 19ZM7.5 16H16.5V15H7.5V16ZM7.5 9H12V8H7.5V9ZM7.5 12.5H16.5V11.5H7.5V12.5Z" fill="#999999"/>
</svg>
