<svg width="24" height="24" viewBox="0 0 24 24" fill="none" xmlns="http://www.w3.org/2000/svg">
<path d="M19.6332 7.10999L13.1592 3.08999C12.805 2.86884 12.3958 2.75159 11.9782 2.75159C11.5606 2.75159 11.1514 2.86884 10.7972 3.08999L4.32419 7.13299C3.95614 7.36509 3.66403 7.69979 3.48386 8.09585C3.30368 8.49192 3.24331 8.93204 3.31019 9.36199L4.98019 19.389C5.06846 19.9139 5.34158 20.3899 5.75019 20.7311C6.1588 21.0722 6.67595 21.2559 7.20819 21.249H16.7902C17.3226 21.2561 17.84 21.0725 18.2488 20.7314C18.6576 20.3902 18.9309 19.9141 19.0192 19.389L20.6892 9.36199C20.7564 8.92413 20.6916 8.47619 20.5032 8.07529C20.3147 7.67438 20.0112 7.33868 19.6312 7.11099M8.63619 16.459H15.3212" stroke="#999999" stroke-width="1.5" stroke-linecap="round" stroke-linejoin="round"/>
</svg>
