<svg width="24" height="24" viewBox="0 0 24 24" fill="none" xmlns="http://www.w3.org/2000/svg">
<path d="M5.92998 8.50989L14.49 4.22989C20.24 1.34989 22.6 3.70989 19.72 9.45989L18.85 11.1999C18.6 11.7099 18.6 12.2999 18.85 12.8099L19.72 14.5399C22.6 20.2899 20.25 22.6499 14.49 19.7699L5.92998 15.4899C2.08998 13.5699 2.08998 10.4299 5.92998 8.50989ZM9.15998 12.7499H14.56C14.97 12.7499 15.31 12.4099 15.31 11.9999C15.31 11.5899 14.97 11.2499 14.56 11.2499H9.15998C8.74998 11.2499 8.40998 11.5899 8.40998 11.9999C8.40998 12.4099 8.74998 12.7499 9.15998 12.7499Z" fill="#D3AB55"/>
</svg>
