<svg width="31" height="32" viewBox="0 0 31 32" fill="none" xmlns="http://www.w3.org/2000/svg">
<path d="M11.875 5.14583V5.54167H18.2083V5.14583C18.2083 4.30598 17.8747 3.50053 17.2808 2.90666C16.687 2.3128 15.8815 1.97917 15.0417 1.97917C14.2018 1.97917 13.3964 2.3128 12.8025 2.90666C12.2086 3.50053 11.875 4.30598 11.875 5.14583ZM9.89583 5.54167V5.14583C9.89583 3.78107 10.438 2.47221 11.403 1.50718C12.368 0.542149 13.6769 0 15.0417 0C16.4064 0 17.7153 0.542149 18.6803 1.50718C19.6454 2.47221 20.1875 3.78107 20.1875 5.14583V5.54167H29.0938C29.3562 5.54167 29.6079 5.64593 29.7935 5.83151C29.9791 6.01709 30.0833 6.2688 30.0833 6.53125C30.0833 6.7937 29.9791 7.04541 29.7935 7.23099C29.6079 7.41657 29.3562 7.52083 29.0938 7.52083H26.7845L25.2011 26.4068C25.0808 27.841 24.4261 29.1777 23.3667 30.1519C22.3073 31.1261 20.9206 31.6667 19.4813 31.6667H10.602C9.1629 31.6665 7.77636 31.1258 6.71713 30.1516C5.65791 29.1774 5.00329 27.8409 4.883 26.4068L3.29967 7.52083H0.989583C0.72713 7.52083 0.475425 7.41657 0.289842 7.23099C0.104259 7.04541 0 6.7937 0 6.53125C0 6.2688 0.104259 6.01709 0.289842 5.83151C0.475425 5.64593 0.72713 5.54167 0.989583 5.54167H9.89583ZM6.85504 26.2414C6.93385 27.1809 7.36273 28.0566 8.05672 28.6949C8.7507 29.3332 9.65913 29.6874 10.602 29.6875H19.4813C20.4243 29.6876 21.333 29.3334 22.0271 28.6952C22.7213 28.0569 23.1503 27.1811 23.2291 26.2414L24.7982 7.52083H5.28517L6.85504 26.2414ZM13.0625 12.8646C13.0625 12.7346 13.0369 12.6059 12.9872 12.4859C12.9374 12.3658 12.8646 12.2567 12.7727 12.1648C12.6808 12.0729 12.5717 12.0001 12.4516 11.9503C12.3316 11.9006 12.2029 11.875 12.0729 11.875C11.943 11.875 11.8143 11.9006 11.6942 11.9503C11.5742 12.0001 11.4651 12.0729 11.3732 12.1648C11.2813 12.2567 11.2084 12.3658 11.1587 12.4859C11.1089 12.6059 11.0833 12.7346 11.0833 12.8646V24.3437C11.0833 24.4737 11.1089 24.6024 11.1587 24.7224C11.2084 24.8425 11.2813 24.9516 11.3732 25.0435C11.4651 25.1354 11.5742 25.2083 11.6942 25.258C11.8143 25.3077 11.943 25.3333 12.0729 25.3333C12.2029 25.3333 12.3316 25.3077 12.4516 25.258C12.5717 25.2083 12.6808 25.1354 12.7727 25.0435C12.8646 24.9516 12.9374 24.8425 12.9872 24.7224C13.0369 24.6024 13.0625 24.4737 13.0625 24.3437V12.8646ZM18.0104 11.875C18.5567 11.875 19 12.3183 19 12.8646V24.3437C19 24.6062 18.8957 24.8579 18.7102 25.0435C18.5246 25.2291 18.2729 25.3333 18.0104 25.3333C17.748 25.3333 17.4963 25.2291 17.3107 25.0435C17.1251 24.8579 17.0208 24.6062 17.0208 24.3437V12.8646C17.0208 12.3183 17.4642 11.875 18.0104 11.875Z" fill="#7B7B7B"/>
</svg>
