<svg width="14" height="14" viewBox="0 0 14 14" fill="none" xmlns="http://www.w3.org/2000/svg">
<path d="M4.4038 1C4.51519 1 4.62202 1.04425 4.70079 1.12302C4.77955 1.20178 4.8238 1.30861 4.8238 1.42V2.2054H9.334V1.4254C9.334 1.31401 9.37825 1.20718 9.45702 1.12842C9.53578 1.04965 9.64261 1.0054 9.754 1.0054C9.86539 1.0054 9.97222 1.04965 10.051 1.12842C10.1298 1.20718 10.174 1.31401 10.174 1.4254V2.2054H11.8C12.1182 2.2054 12.4233 2.33175 12.6483 2.55666C12.8733 2.78157 12.9998 3.08664 13 3.4048V11.8006C12.9998 12.1188 12.8733 12.4238 12.6483 12.6487C12.4233 12.8737 12.1182 13 11.8 13H2.2C1.88184 13 1.57671 12.8737 1.35168 12.6487C1.12666 12.4238 1.00016 12.1188 1 11.8006V3.4048C1.00016 3.08664 1.12666 2.78157 1.35168 2.55666C1.57671 2.33175 1.88184 2.2054 2.2 2.2054H3.9838V1.4194C3.98396 1.30811 4.02828 1.20144 4.10703 1.1228C4.18578 1.04417 4.29251 1 4.4038 1ZM1.84 5.6452V11.8006C1.84 11.8479 1.84931 11.8947 1.8674 11.9384C1.8855 11.982 1.91201 12.0217 1.94544 12.0552C1.97887 12.0886 2.01856 12.1151 2.06223 12.1332C2.10591 12.1513 2.15272 12.1606 2.2 12.1606H11.8C11.8473 12.1606 11.8941 12.1513 11.9378 12.1332C11.9814 12.1151 12.0211 12.0886 12.0546 12.0552C12.088 12.0217 12.1145 11.982 12.1326 11.9384C12.1507 11.8947 12.16 11.8479 12.16 11.8006V5.6536L1.84 5.6452ZM5.0002 9.7714V10.771H4V9.7714H5.0002ZM7.4998 9.7714V10.771H6.5002V9.7714H7.4998ZM10 9.7714V10.771H8.9998V9.7714H10ZM5.0002 7.3852V8.3848H4V7.3852H5.0002ZM7.4998 7.3852V8.3848H6.5002V7.3852H7.4998ZM10 7.3852V8.3848H8.9998V7.3852H10ZM3.9838 3.0448H2.2C2.15272 3.0448 2.10591 3.05411 2.06223 3.0722C2.01856 3.0903 1.97887 3.11681 1.94544 3.15024C1.91201 3.18367 1.8855 3.22336 1.8674 3.26703C1.84931 3.31071 1.84 3.35752 1.84 3.4048V4.8058L12.16 4.8142V3.4048C12.16 3.35752 12.1507 3.31071 12.1326 3.26703C12.1145 3.22336 12.088 3.18367 12.0546 3.15024C12.0211 3.11681 11.9814 3.0903 11.9378 3.0722C11.8941 3.05411 11.8473 3.0448 11.8 3.0448H10.174V3.6022C10.174 3.71359 10.1298 3.82042 10.051 3.89919C9.97222 3.97795 9.86539 4.0222 9.754 4.0222C9.64261 4.0222 9.53578 3.97795 9.45702 3.89919C9.37825 3.82042 9.334 3.71359 9.334 3.6022V3.0448H4.8238V3.5968C4.8238 3.70819 4.77955 3.81502 4.70079 3.89378C4.62202 3.97255 4.51519 4.0168 4.4038 4.0168C4.29241 4.0168 4.18558 3.97255 4.10682 3.89378C4.02805 3.81502 3.9838 3.70819 3.9838 3.5968V3.0448Z" fill="#7B7B7B"/>
</svg>
